<?xml version="1.0" encoding="utf-8"?>
<!-- Generator: Adobe Illustrator 25.0.1, SVG Export Plug-In . SVG Version: 6.00 Build 0)  -->
<svg version="1.1" baseProfile="tiny" id="Layer_1" xmlns="http://www.w3.org/2000/svg" xmlns:xlink="http://www.w3.org/1999/xlink"
	 x="0px" y="0px" viewBox="0 0 64.7 64.7" overflow="visible" xml:space="preserve">
<g>
	<path fill="#021E5D" d="M45.1,7.2H19.6c-6.8,0-12.4,5.5-12.4,12.4v25.6c0,6.8,5.5,12.4,12.4,12.4h25.6c6.8,0,12.4-5.5,12.4-12.4
		V19.6C57.5,12.7,51.9,7.2,45.1,7.2z M55.2,45.1c0,5.5-4.5,10-10,10H19.6c-5.5,0-10-4.5-10-10V19.6c0-5.5,4.5-10,10-10h25.6
		c5.5,0,10,4.5,10,10C55.2,19.6,55.2,45.1,55.2,45.1z"/>
	<path fill="#021E5D" d="M32.3,19.4c-7.2,0-13,5.8-13,13s5.8,13,13,13s13-5.9,13-13.1S39.5,19.4,32.3,19.4z M32.3,43
		c-5.8,0-10.6-4.7-10.6-10.6c0-5.8,4.7-10.6,10.6-10.6S43,26.5,43,32.3C43,38.2,38.2,43,32.3,43z"/>
	<path fill="#021E5D" d="M45.6,15.4c-1.6,0-2.8,1.2-2.7,2.8c0,1.6,1.2,2.8,2.8,2.7c1.6,0,2.8-1.2,2.7-2.8
		C48.4,16.7,47.2,15.4,45.6,15.4z"/>
</g>
</svg>
