<?xml version="1.0" encoding="utf-8"?>
<!-- Generator: Adobe Illustrator 25.0.1, SVG Export Plug-In . SVG Version: 6.00 Build 0)  -->
<svg version="1.1" baseProfile="tiny" id="Layer_1" xmlns="http://www.w3.org/2000/svg" xmlns:xlink="http://www.w3.org/1999/xlink"
	 x="0px" y="0px" viewBox="0 0 64.7 64.7" overflow="visible" xml:space="preserve">
<g>
	<path fill="#F9971C" d="M40.8,23.2c0.8,2.6,2.2,6.2,4.5,8.1c0.5,0.4,1.3,0.3,1.7-0.2c0.4-0.5,0.3-1.3-0.2-1.7
		c-2.6-2.1-4.1-7.7-4.4-9.6c-0.1-0.5-0.5-0.9-1-1c-0.5-0.1-1,0.2-1.2,0.7c-4.6,10.7-21.3,9.6-21.4,9.6c-0.6,0-1.2,0.4-1.3,1.1
		c0,0.7,0.4,1.2,1.1,1.3c0.1,0,0.7,0,1.7,0c1.8,0,4.8-0.1,8-0.9C33.9,29.4,38.2,26.8,40.8,23.2z"/>
	<path fill="#F9971C" d="M62,25.9l-6.2-6.8c-0.6-2.6-5.3-19.1-23.3-19.1C14.7,0.1,10,16.2,9.3,19l-6.5,5.7c-0.3,0.2-0.4,0.6-0.4,0.9
		v12.3c0,0.3,0.2,0.7,0.4,0.9l5.5,4.7l0,6.9c0,0.1,0.4,10,10.8,10.1c1.1,2.4,4.9,4,9.7,4c5.7,0,10-2.3,10-5.5c0-1.7-1.3-3.2-3.5-4.2
		c4.2-1.1,8.3-4.3,11.6-9.5c3.6-5.5,5.8-12.6,5.8-18.4c0-11.9-9.2-21.6-20.5-21.6C21,5.4,11.9,15.1,11.9,27c0,5.8,2.2,12.9,5.8,18.4
		c2.6,4,5.5,6.8,8.7,8.4c-4,0.5-6.9,2.2-7.5,4.4c-7.9-0.3-8.2-7.5-8.2-7.8V43c0-0.3-0.2-0.7-0.4-0.9l-5.5-4.7V26.1l6.4-5.6
		c0.2-0.2,0.3-0.4,0.4-0.7c0.1-0.7,3.6-17.5,21-17.5c17.4,0,20.9,16.8,21,17.5c0,0.2,0.1,0.4,0.3,0.6l6.1,6.7v11.1l-4.4,3.8
		c-0.5,0.4-0.5,1.2-0.1,1.7c0.4,0.5,1.2,0.6,1.7,0.1l4.8-4.2c0.3-0.2,0.4-0.6,0.4-0.9V26.7C62.3,26.4,62.2,26.1,62,25.9z M14.2,27
		c0-10.6,8.1-19.2,18.1-19.2c10,0,18.1,8.6,18.1,19.2c0,10.3-8.1,26-18.1,26C22.3,52.9,14.2,37.2,14.2,27z M28.8,56
		c4.7,0,7.6,1.8,7.6,3.1s-3,3.1-7.6,3.1c-4.7,0-7.6-1.8-7.6-3.1S24.1,56,28.8,56z"/>
</g>
</svg>
