<?xml version="1.0" encoding="utf-8"?>
<!-- Generator: Adobe Illustrator 24.2.0, SVG Export Plug-In . SVG Version: 6.00 Build 0)  -->
<svg version="1.1" id="Layer_1" xmlns="http://www.w3.org/2000/svg" xmlns:xlink="http://www.w3.org/1999/xlink" x="0px" y="0px"
	 viewBox="0 0 101.3 76" style="enable-background:new 0 0 101.3 76;" xml:space="preserve">
<style type="text/css">
	.st0{fill:#FFFFFF;}
	.st1{fill:#EC4324;}
</style>
<rect x="0.1" y="0.1" class="st0" width="101.1" height="75.8"/>
<g>
	<g>
		<path class="st0" d="M28.9,29.7c0,0.2,0,0.2,0,0.2c0.6,2.2,1.2,4.4,1.8,6.6c0.2,0.9,0.2,1.1-0.8,1.5c-0.7,0.3-1.4,0.6-2.1,1
			c2.1,1.7,4.1,3.3,6,4.9c1.6,1.3,3.1,2.6,4.7,3.9c0.5,0.5,0.8,1.1,0.5,1.8c-0.2,0.5-0.3,0.9-0.5,1.4c-0.2,0.5-0.3,1-0.5,1.5
			c1.9-0.3,3.7-0.5,5.6-0.8c1.7-0.2,3.3-0.5,5-0.7c0.8-0.1,1.2,0.5,1.1,1.2c-0.1,1-0.1,2-0.2,3c-0.1,1.9-0.2,3.7-0.2,5.7
			c0,0.8,0,1.7,0,2.5c0.5,0,1.1,0,1.7,0c0-0.2,0-0.3,0-0.5c-0.1-3.5-0.2-7.1-0.3-10.6c0-0.8,0.5-1.2,1.2-1.1
			c2.3,0.3,4.5,0.6,6.8,0.9c1.2,0.2,2.4,0.3,3.7,0.5c-0.3-1-0.5-1.9-0.8-2.8c-0.3-0.9-0.2-1.4,0.6-2c2.7-2.2,5.4-4.4,8-6.6
			c0.8-0.7,1.8-1.4,2.7-2.1c-0.8-0.4-1.4-0.7-2.1-1c-0.8-0.4-1-0.6-0.7-1.5c0.4-1.5,0.8-3.1,1.2-4.6c0.2-0.7,0.4-1.5,0.6-2.2
			c-0.8,0.2-1.4,0.3-2.1,0.5c-1.3,0.3-2.7,0.5-4,0.8c-0.8,0.2-1.2-0.1-1.5-0.9c-0.2-0.8-0.5-1.6-0.7-2.5c-0.8,0.9-1.5,1.8-2.3,2.6
			c-0.9,1.1-1.8,2.1-2.8,3.1c-0.4,0.4-0.9,0.5-1.2,0.4c-0.5-0.2-0.5-0.7-0.5-1.1c0-0.1,0-0.1,0-0.2c0.5-3.1,1.1-6.1,1.7-9.2
			c0.2-0.8,0.3-1.6,0.5-2.5c-1.1,0.5-2,1.1-3,1.5c-1,0.5-1.5,0.3-2.1-0.7c-1.1-2.2-2.4-4.4-3.5-6.6c-0.1-0.2-0.2-0.3-0.3-0.5
			c-0.1,0.2-0.2,0.4-0.3,0.5c-1.2,2.2-2.4,4.4-3.6,6.7c-0.4,0.8-0.9,0.9-1.7,0.6c-0.2-0.1-0.4-0.2-0.5-0.2c-0.9-0.5-1.8-0.9-2.8-1.4
			c0,0.2,0,0.4,0.1,0.5c0.4,2.1,0.8,4.3,1.2,6.4c0.3,1.6,0.6,3.3,0.9,4.9c0.1,0.6-0.1,1.1-0.5,1.2c-0.4,0.2-0.8,0-1.2-0.4
			c-0.1-0.1-0.1-0.1-0.2-0.2c-1.1-1.3-2.3-2.6-3.4-3.9c-0.5-0.5-0.9-1.1-1.5-1.6c-0.2,0.9-0.5,1.7-0.7,2.5c-0.2,0.8-0.7,1.1-1.5,0.9
			c-1.3-0.3-2.7-0.5-4-0.8C30.3,30,29.6,29.9,28.9,29.7z"/>
		<path class="st1" d="M21.6,0c0,0.2,0,0.4,0,0.7c0,24.9,0,49.7,0,74.6c0,0.2,0,0.4,0,0.7C14.3,76,7,76-0.3,76c0-25.4,0-50.7,0-76
			C7,0,14.3,0,21.6,0z"/>
		<path class="st1" d="M79.7,76c0-0.2,0-0.4,0-0.7c0-24.9,0-49.7,0-74.6c0-0.2,0-0.4,0-0.7c7.2,0,14.4,0,21.6,0
			c0,25.3,0,50.6,0,75.9C94.1,76,86.9,76,79.7,76z"/>
		<path class="st1" d="M28.9,29.7c0.7,0.2,1.4,0.3,2,0.4c1.3,0.3,2.7,0.5,4,0.8c0.8,0.2,1.3-0.1,1.5-0.9c0.2-0.8,0.5-1.6,0.7-2.5
			c0.5,0.5,1,1.1,1.5,1.6c1.1,1.3,2.3,2.6,3.4,3.9c0.1,0.1,0.1,0.1,0.2,0.2c0.4,0.5,0.9,0.6,1.2,0.4c0.4-0.2,0.5-0.6,0.5-1.2
			c-0.3-1.6-0.6-3.3-0.9-4.9c-0.4-2.1-0.8-4.3-1.2-6.4c0-0.2,0-0.2-0.1-0.5c0.9,0.5,1.8,0.9,2.8,1.4c0.2,0.1,0.4,0.2,0.5,0.2
			c0.8,0.3,1.3,0.1,1.7-0.6c1.2-2.2,2.4-4.4,3.6-6.7c0.1-0.2,0.2-0.3,0.3-0.5c0.1,0.2,0.2,0.3,0.3,0.5c1.1,2.2,2.4,4.4,3.5,6.6
			c0.5,1,1.1,1.1,2.1,0.7c1-0.5,1.9-1,3-1.5c-0.2,0.9-0.3,1.8-0.5,2.5c-0.5,3.1-1.1,6.1-1.7,9.2c0,0.1,0,0.1,0,0.2
			c0,0.5,0,0.9,0.5,1.1c0.3,0.2,0.8,0.1,1.2-0.4c0.9-1.1,1.9-2.1,2.8-3.1c0.8-0.8,1.5-1.7,2.3-2.6c0.2,0.9,0.5,1.8,0.7,2.5
			c0.2,0.8,0.6,1.1,1.5,0.9c1.3-0.3,2.7-0.5,4-0.8c0.7-0.2,1.3-0.3,2.1-0.5c-0.2,0.8-0.4,1.5-0.6,2.2c-0.4,1.5-0.8,3.1-1.2,4.6
			c-0.2,0.9-0.2,1.1,0.7,1.5c0.7,0.3,1.4,0.6,2.1,1c-0.9,0.8-1.8,1.5-2.7,2.1c-2.7,2.2-5.4,4.4-8,6.6c-0.8,0.6-0.8,1.1-0.6,2
			c0.3,0.9,0.5,1.8,0.8,2.8c-1.2-0.2-2.4-0.3-3.7-0.5c-2.3-0.3-4.5-0.6-6.8-0.9c-0.8-0.1-1.2,0.3-1.2,1.1c0.1,3.5,0.2,7.1,0.3,10.6
			c0,0.2,0,0.3,0,0.5c-0.6,0-1.1,0-1.7,0c0-0.8,0-1.7,0-2.5c0.1-1.9,0.2-3.7,0.2-5.7c0.1-1,0.1-2,0.2-3c0.1-0.8-0.4-1.3-1.1-1.2
			c-1.7,0.2-3.3,0.5-5,0.7c-1.8,0.2-3.7,0.5-5.6,0.8c0.2-0.5,0.3-1.1,0.5-1.5c0.2-0.5,0.3-0.9,0.5-1.4c0.2-0.7,0.1-1.3-0.5-1.8
			c-1.6-1.3-3.1-2.6-4.7-3.9c-2-1.6-4-3.2-6-4.9c0.7-0.3,1.4-0.7,2.1-1c0.9-0.4,1-0.6,0.8-1.5C30.1,34.1,29.4,32,28.9,29.7
			C29,29.9,29,29.9,28.9,29.7z"/>
	</g>
</g>
</svg>
