<?xml version="1.0" encoding="utf-8"?>
<!-- Generator: Adobe Illustrator 24.2.0, SVG Export Plug-In . SVG Version: 6.00 Build 0)  -->
<svg version="1.1" id="Layer_1" xmlns="http://www.w3.org/2000/svg" xmlns:xlink="http://www.w3.org/1999/xlink" x="0px" y="0px"
	 viewBox="0 0 50 50" style="enable-background:new 0 0 50 50;" xml:space="preserve">
<style type="text/css">
	.st0{fill:#8FABCC;}
	.st1{fill:#FFFFFF;}
</style>
<circle class="st0" cx="25.1" cy="24.6" r="24.4"/>
<g>
	<g>
		<path class="st1" d="M21.8,31.8c0-2.1,0.3-3.7,0.8-5c0.5-1.2,1.5-2.6,3.1-4.1c1.5-1.5,2.5-2.5,2.9-3.1c0.6-0.9,0.9-2,0.9-3.1
			c0-1.5-0.4-2.6-1.1-3.3c-0.7-0.8-1.8-1.2-3.2-1.2c-1.3,0-2.4,0.4-3.2,1.1c-0.8,0.8-1.2,1.8-1.2,3.1h-5.7c0-2.8,1-4.9,2.8-6.5
			c1.8-1.6,4.3-2.4,7.3-2.4c3.1,0,5.6,0.8,7.3,2.4c1.8,1.6,2.6,3.8,2.6,6.7c0,2.5-1.2,5-3.6,7.5l-2.9,2.8c-1,1.2-1.6,2.9-1.6,5.1
			H21.8z M21.4,39c0-0.9,0.3-1.7,0.9-2.2c0.6-0.6,1.4-0.8,2.3-0.8c1,0,1.8,0.3,2.4,0.9c0.6,0.6,0.9,1.3,0.9,2.2
			c0,0.9-0.3,1.6-0.8,2.1c-0.6,0.6-1.4,0.9-2.4,0.9c-1,0-1.8-0.3-2.4-0.9C21.7,40.6,21.4,39.9,21.4,39z"/>
	</g>
</g>
</svg>
