<?xml version="1.0" encoding="utf-8"?>
<!-- Generator: Adobe Illustrator 22.1.0, SVG Export Plug-In . SVG Version: 6.00 Build 0)  -->
<svg version="1.1" id="NEOSTRATA_tagline_logo_PMS_10392"
	 xmlns="http://www.w3.org/2000/svg" xmlns:xlink="http://www.w3.org/1999/xlink" x="0px" y="0px" viewBox="0 0 500 58"
	 style="enable-background:new 0 0 500 58;" xml:space="preserve">
<style type="text/css">
	.st0{fill:#4D5459;}
</style>
<g>
	<g>
		<g>
			<g>
				<path class="st0" d="M0.6,1.4l9.1,0l29.9,38.6l0-38.6l9.6,0l0,55.8l-8.2,0L10.2,17.5l0,39.7l-9.6,0L0.6,1.4z"/>
			</g>
			<g>
				<path class="st0" d="M114.3,29.4v-0.2c0-15.7,12.1-28.9,29.2-28.9s29.1,13,29.1,28.7v0.2c0,15.7-12.1,28.9-29.2,28.9
					C126.3,58.1,114.3,45.1,114.3,29.4z M162.4,29.4v-0.2c0-10.8-7.9-19.9-19-19.9c-11.1,0-18.8,8.9-18.8,19.7v0.2
					c0,10.8,7.9,19.9,19,19.9C154.6,49.1,162.4,40.3,162.4,29.4z"/>
			</g>
			<g>
				<path class="st0" d="M246.1,10.4l-17.7,0V1.4l45.2,0v9.1l-17.7,0l0,46.7l-9.9,0L246.1,10.4z"/>
			</g>
			<g>
				<path class="st0" d="M284,1.4l24.8,0c7,0,12.5,2.1,16.1,5.6c2.9,3,4.6,7.2,4.6,12v0.2c0,9.2-5.5,14.7-13.3,16.9l15.1,21.1
					l-11.5,0L306,37.7h-0.2l-12.1,0v19.5l-9.8,0L284,1.4z M308.1,29c7,0,11.5-3.7,11.5-9.3v-0.2c0-6-4.3-9.2-11.5-9.2l-14.3,0V29
					L308.1,29z"/>
			</g>
			<g>
				<path class="st0" d="M361.3,1l9.1,0l24.5,56.2l-10.4,0l-5.7-13.5l-26.4,0l-5.7,13.5l-10,0L361.3,1z M375.3,35l-9.6-22.3
					L356.1,35L375.3,35z"/>
			</g>
			<g>
				<path class="st0" d="M411,10.4l-17.7,0l0-9.1l45.2,0v9.1l-17.7,0l0,46.7l-9.9,0L411,10.4z"/>
			</g>
			<g>
				<path class="st0" d="M461.4,1l9.1,0L495,57.2l-10.4,0L479,43.7l-26.4,0l-5.7,13.5l-10,0L461.4,1z M475.5,35l-9.6-22.3L456.3,35
					L475.5,35z"/>
			</g>
			<g>
				<g>
					<g>
						<path class="st0" d="M489.8,4.4l3,0c0.9,0,1.6,0.3,2.1,0.7c0.4,0.4,0.6,0.9,0.6,1.5v0c0,1.1-0.6,1.8-1.5,2.1l1.7,2.4l-1.7,0
							L492.5,9h0l-1.1,0v2.2l-1.5,0V4.4z M492.8,7.7c0.8,0,1.2-0.4,1.2-1v0c0-0.7-0.5-1-1.2-1l-1.5,0v2L492.8,7.7z"/>
					</g>
				</g>
				<g>
					<path class="st0" d="M492.4,15c-3.9,0-7-3.1-7-7v0c0-3.9,3.2-7,7-7c3.9,0,7,3.1,7,7C499.4,11.9,496.3,15,492.4,15z M492.4,2.2
						c-3.2,0-5.8,2.6-5.8,5.8v0c0,3.2,2.6,5.7,5.7,5.7c3.2,0,5.8-2.6,5.8-5.8C498.2,4.8,495.6,2.2,492.4,2.2z"/>
				</g>
			</g>
			<g>
				<g>
					<polygon class="st0" points="71.1,48.4 71.1,33.4 101,33.4 101,24.6 71.1,24.6 71.1,10.1 106.6,10.1 113.3,1.4 61.3,1.4 
						61.3,57.2 112.5,57.2 105.9,48.4 					"/>
				</g>
			</g>
			<g>
				<g>
					<path class="st0" d="M204.1,24.8c-10.7-2.6-13.2-4.5-13.2-8.8v-0.2c0-0.4,0-0.8,0.1-1.2c0.7-3.1,3.9-5.4,8.9-5.4
						c4.9,0,9.8,1.9,14.7,5.4l5.5-7.2c-0.7-0.5-1.4-1.1-2.1-1.5c-5.1-3.5-10.9-5.3-18-5.3c-6.1,0-11.2,2-14.6,5.3
						c-2.4,2.3-3.9,5.3-4.3,8.8c-0.1,0.7-0.1,1.4-0.1,2.1v0.2c0,10.3,6.7,13.8,18.6,16.7c10.4,2.4,12.6,4.5,12.6,8.5v0.2
						c0,4.2-3.8,7-9.9,7c-8.8,0-15.6-4.7-19-7.6v10.8c5.7,3.7,12,5.5,18.7,5.5c11.7,0,19.9-6.2,19.9-16.7v-0.2
						C222,31.9,215.9,27.7,204.1,24.8z"/>
				</g>
			</g>
		</g>
	</g>
</g>
</svg>
