<?xml version="1.0" encoding="utf-8"?>
<!-- Generator: Adobe Illustrator 25.0.1, SVG Export Plug-In . SVG Version: 6.00 Build 0)  -->
<svg version="1.1" baseProfile="tiny" id="Layer_1" xmlns="http://www.w3.org/2000/svg" xmlns:xlink="http://www.w3.org/1999/xlink"
	 x="0px" y="0px" viewBox="0 0 20 20" overflow="visible" xml:space="preserve">
<g>
	<path fill="#8FABCC" d="M10,19.2c-5.1,0-9.2-4.1-9.2-9.2S4.9,0.7,10,0.7c5.1,0,9.2,4.1,9.2,9.2S15.1,19.2,10,19.2z"/>
	<path fill="#4E5458" d="M10,1.5c4.7,0,8.5,3.8,8.5,8.5s-3.8,8.5-8.5,8.5S1.5,14.7,1.5,10S5.3,1.5,10,1.5 M10,0C4.5,0,0,4.5,0,10
		s4.5,10,10,10s10-4.5,10-10S15.5,0,10,0L10,0z"/>
</g>
<circle fill="#4E5458" cx="10" cy="10" r="3.9"/>
</svg>
