<?xml version="1.0" encoding="utf-8"?>
<!-- Generator: Adobe Illustrator 24.1.3, SVG Export Plug-In . SVG Version: 6.00 Build 0)  -->
<svg version="1.1" id="Layer_1" xmlns="http://www.w3.org/2000/svg" xmlns:xlink="http://www.w3.org/1999/xlink" x="0px" y="0px"
	 viewBox="0 0 318.75 382.53" style="enable-background:new 0 0 318.75 382.53;" xml:space="preserve">
<style type="text/css">
	.st0{fill:#4E5458;}
</style>
<g>
	<path class="st0" d="M269.62,279.8h-20.93l0.1-12.24c0-5.32,4.38-9.9,9.8-9.9h1.31c5.61,0,10.09,4.57,10.09,9.9L269.62,279.8z
		 M190.9,253.65c-5.32,0-9.63,3.65-9.63,8.03v59.21c0,4.31,4.3,8.04,9.63,8.04s9.71-3.73,9.71-8.04v-59.21
		C200.6,257.3,196.22,253.65,190.9,253.65L190.9,253.65z M318.75,220.5v112.72c0,27.08-23.35,49.31-52.12,49.31H52.2
		C23.43,382.53,0,360.3,0,333.22V220.5c0-27.08,23.44-49.12,52.2-49.12h214.43C295.39,171.38,318.75,193.42,318.75,220.5
		L318.75,220.5z M66.5,345.55V226.76h26.62v-17.64l-70.88-0.09v17.37h22.14v119.18H66.5V345.55z M146.16,244.5h-22.14v63.33
		c0,9.34,0.56,13.82,0,15.51c-1.86,4.86-9.9,10.09-13.07,0.56c-0.55-1.87-0.09-6.73-0.09-15.51V244.5H88.71l0.1,62.95
		c0,9.53-0.19,16.81,0.09,19.98c0.46,5.79,0.29,12.51,5.61,16.43c9.99,7.09,29.13-1.12,33.9-11.39v13.07h17.74L146.16,244.5
		L146.16,244.5z M217.04,317.15V264.2c0-19.99-15.03-32.13-35.5-15.88l0.1-39.23H159.4v135.7l18.12-0.37l1.77-8.4
		C202.47,357.32,217.04,342.75,217.04,317.15L217.04,317.15z M286.44,310.06l-16.63,0.19v11.59c0,4.86-4.11,8.97-9.15,8.97h-3.17
		c-5.04,0-9.05-4.11-9.05-8.97v-24.66h38.01V282.9c0-10.28-0.37-20.93-1.12-26.81c-2.8-18.95-29.33-21.85-42.78-12.24
		c-4.3,3-7.48,7-9.34,12.51c-1.87,5.42-2.81,12.89-2.81,22.41v31.48C230.49,362.54,293.89,355.07,286.44,310.06L286.44,310.06z
		 M201.16,139.14c1.21,2.81,3,5.04,5.32,6.73c2.42,1.68,5.52,2.61,9.15,2.61c3.17,0,5.98-0.94,8.5-2.81
		c2.42-1.77,4.48-4.38,6.26-7.94l-0.56,8.78h24.75V41.38h-19.43v81.82c0,4.48-3.65,8.03-8.22,8.03c-4.38,0-8.13-3.65-8.13-8.03
		V41.38h-20.18v70.88c0,8.97,0.19,15.03,0.37,18.12C199.3,133.36,200.14,136.36,201.16,139.14L201.16,139.14z M126.36,79.76
		c0-10.09,0.84-17.93,2.52-23.62c1.59-5.61,4.67-10.18,9.05-13.63c4.39-3.44,9.9-5.13,16.72-5.13c5.69,0,10.64,1.21,14.76,3.27
		c4.02,2.32,7.19,5.13,9.34,8.68c2.42,3.56,3.92,7.19,4.67,10.94c0.84,3.73,1.21,9.53,1.21,17.09v26.71
		c0,9.71-0.29,16.91-1.21,21.49c-0.66,4.57-2.25,8.78-4.77,12.7c-2.42,3.92-5.61,6.82-9.53,8.68c-3.83,2.06-8.3,2.9-13.45,2.9
		c-5.61,0-10.28-0.84-14.2-2.42c-4.02-1.68-7-4.02-9.15-7.28c-2.15-3.17-3.73-7.19-4.57-11.67c-0.94-4.67-1.4-11.59-1.4-20.83
		L126.36,79.76L126.36,79.76z M145.69,121.5c0,5.98,4.48,10.74,9.8,10.74c5.42,0,9.8-4.77,9.8-10.74V65.55
		c0-5.88-4.48-10.74-9.8-10.74c-5.42,0-9.8,4.86-9.8,10.74V121.5z M77.24,149.79h23.35l0.1-80.6l27.46-69.02h-25.41L88.08,51.36
		L73.22,0H48.01l29.23,69.21V149.79L77.24,149.79z"/>
</g>
</svg>
